<?xml version="1.0"?>
<svg xmlns:rdf="http://www.w3.org/1999/02/22-rdf-syntax-ns#" xmlns="http://www.w3.org/2000/svg" xmlns:cc="http://web.resource.org/cc/" xmlns:xlink="http://www.w3.org/1999/xlink" xmlns:dc="http://purl.org/dc/elements/1.1/" xmlns:svg="http://www.w3.org/2000/svg" text-rendering="geometricPrecision" fill-rule="evenodd" xml:space="preserve" shape-rendering="geometricPrecision" clip-rule="evenodd" image-rendering="optimizeQuality" viewBox="0 0 6.17027 5.76613">
 <g id="Capa_x0020_1">
  <path d="m0.93726 0h4.2958c0.5155 0 0.93726 0.42186 0.93726 0.93726v3.8916c0 0.5154-0.42186 0.93726-0.93726 0.93726h-4.2958c-0.5154 0-0.93726-0.42176-0.93726-0.93726v-3.8916c0-0.5155 0.42176-0.93726 0.93726-0.93726z" fill="#182980"/>
  <path d="m5.7073 2.3043h-1.9597v-1.4413h1.4281v0.43094l0.53022-0.083845v-0.21546c0-0.41752-0.15239-0.53902-0.56477-0.53902h-1.359c-0.41396 0-0.56477 0.12029-0.56477 0.53902v1.2001c0 0.41931 0.15042 0.53828 0.56477 0.53828h1.5433v0.31547h-1.5433c-0.41359 0-0.56477 0.12026-0.56477 0.53902v1.2001c0 0.41954 0.15042 0.53828 0.56477 0.53828h1.359c0.41283 0 0.56477-0.12 0.56477-0.53828v-0.26989l-0.53022-0.10957v0.48901h-1.4281v-1.4413h1.9597v-1.1516z" fill="#FEFEFE"/>
  <path d="m0.41148 2.3043h1.9597v-1.4413h-1.4281v0.43094l-0.53022-0.083845v-0.21546c0-0.41752 0.15239-0.53902 0.56477-0.53902h1.359c0.41396 0 0.56477 0.12029 0.56477 0.53902v1.2001c0 0.41931-0.15042 0.53828-0.56477 0.53828h-1.5433v0.31547h1.5433c0.41359 0 0.56477 0.12026 0.56477 0.53902v1.2001c0 0.41954-0.15042 0.53828-0.56477 0.53828h-1.359c-0.41283 0-0.56477-0.12-0.56477-0.53828v-0.26989l0.53022-0.10957v0.48901h1.4281v-1.4413h-1.9597v-1.1516z" fill="#FEFEFE"/>
 </g>
<metadata><rdf:RDF><cc:Work><dc:format>image/svg+xml</dc:format><dc:type rdf:resource="http://purl.org/dc/dcmitype/StillImage"/><cc:license rdf:resource="http://creativecommons.org/licenses/publicdomain/"/><dc:publisher><cc:Agent rdf:about="http://openclipart.org/"><dc:title>Openclipart</dc:title></cc:Agent></dc:publisher><dc:title>logo c-c</dc:title><dc:date>2010-05-08T12:08:55</dc:date><dc:description>clip art, clipart, logo, sign, </dc:description><dc:source>http://openclipart.org/detail/59215/logo-c-c-by-jantonalcor</dc:source><dc:creator><cc:Agent><dc:title>jantonalcor</dc:title></cc:Agent></dc:creator><dc:subject><rdf:Bag><rdf:li>clip art</rdf:li><rdf:li>clipart</rdf:li><rdf:li>logo</rdf:li><rdf:li>sign</rdf:li></rdf:Bag></dc:subject></cc:Work><cc:License rdf:about="http://creativecommons.org/licenses/publicdomain/"><cc:permits rdf:resource="http://creativecommons.org/ns#Reproduction"/><cc:permits rdf:resource="http://creativecommons.org/ns#Distribution"/><cc:permits rdf:resource="http://creativecommons.org/ns#DerivativeWorks"/></cc:License></rdf:RDF></metadata></svg>
